<svg xmlns="http://www.w3.org/2000/svg" xmlns:xlink="http://www.w3.org/1999/xlink" aria-label="Vite" viewBox="0 0 410 404"><path fill="#3FCDF7" d="M399.641 59.525l-183.998 329.02c-3.799 6.793-13.559 6.851-17.415.106L10.801 59.525C6.631 52.26 12.124 43.302 20.501 44.03l188.748 16.89a9.59 9.59 0 001.715 0L399.115 44.029c8.377-.728 13.87 8.23 9.526 15.496z"/><path fill="#7B5EEA" d="M292.965.43L163.128 24.647a4.79 4.79 0 00-3.921 4.745l-6.817 184.875a4.79 4.79 0 005.851 4.718l32.227-7.27a4.79 4.79 0 015.707 5.683l-9.53 46.129a4.79 4.79 0 005.855 5.639l19.87-6.031a4.79 4.79 0 015.854 5.639l-15.13 73.232c-.949 4.591 5.369 7.108 8.024 3.219l1.772-2.729 97.929-195.384a4.79 4.79 0 00-5.04-6.878l-33.197 6.385a4.79 4.79 0 01-5.537-6.146l21.568-74.286a4.79 4.79 0 00-5.539-6.05l-20.407 3.888a4.79 4.79 0 01-5.607-5.386l10.066-57.403A4.79 4.79 0 00292.965.43z"/></svg>
